<svg width="18" height="18" viewBox="0 0 18 18" fill="none" xmlns="http://www.w3.org/2000/svg">
<path d="M8.99999 0.666687C13.6025 0.666687 17.3333 4.39752 17.3333 9.00002C17.3333 13.6025 13.6025 17.3334 8.99999 17.3334C4.39749 17.3334 0.666656 13.6025 0.666656 9.00002C0.666656 4.39752 4.39749 0.666687 8.99999 0.666687ZM8.41082 6.05335L6.05332 8.41085C5.8971 8.56713 5.80933 8.77905 5.80933 9.00002C5.80933 9.22099 5.8971 9.43291 6.05332 9.58919L8.41082 11.9467C8.5671 12.1029 8.77902 12.1907 8.99999 12.1907C9.22096 12.1907 9.43288 12.1029 9.58916 11.9467L11.9467 9.58919C12.1029 9.43291 12.1906 9.22099 12.1906 9.00002C12.1906 8.77905 12.1029 8.56713 11.9467 8.41085L9.58916 6.05335C9.43288 5.89713 9.22096 5.80936 8.99999 5.80936C8.77902 5.80936 8.5671 5.89713 8.41082 6.05335Z" fill="#333333"/>
</svg>
