<svg width="39" height="40" viewBox="0 0 39 40" fill="none" xmlns="http://www.w3.org/2000/svg">
<path fill-rule="evenodd" clip-rule="evenodd" d="M16.9885 9.5759V13.25H15.3635C10.2107 13.25 5.8589 16.6755 4.45978 21.375H2.36353V27.875H4.45978C5.8589 32.5745 10.2107 36 15.3635 36C17.489 36 19.738 36 21.8635 36C27.0164 36 31.3682 32.5745 32.7673 27.875H34.8635V21.375H32.7673C31.3682 16.6755 27.0164 13.25 21.8635 13.25H20.2385V9.58562C21.2184 9.02337 21.8782 7.96713 21.8782 6.75813C21.8782 4.95926 20.4189 3.5 18.6216 3.5C16.8228 3.5 15.3635 4.95926 15.3635 6.75813C15.3635 7.96063 16.0168 9.01202 16.9885 9.5759ZM7.23853 24.625C7.23853 20.1384 10.8769 16.5 15.3635 16.5C17.489 16.5 19.738 16.5 21.8635 16.5C26.3501 16.5 29.9885 20.1384 29.9885 24.625C29.9885 24.6315 29.9885 24.6396 29.9885 24.6461C29.9885 29.1116 26.3501 32.75 21.8635 32.75C19.738 32.75 17.489 32.75 15.3635 32.75C10.8769 32.75 7.23853 29.1116 7.23853 24.625ZM21.8635 23V26.25H25.1135V23H21.8635ZM12.1135 23V26.25H15.3635V23H12.1135Z" fill="white"/>
</svg>
