<svg width="25" height="24" viewBox="0 0 25 24" fill="none" xmlns="http://www.w3.org/2000/svg">
<path fill-rule="evenodd" clip-rule="evenodd" d="M6.75 5.5C6.74993 4.83163 6.95593 4.17949 7.33993 3.63244C7.72393 3.08539 8.26725 2.67003 8.89587 2.44296C9.52449 2.21589 10.2078 2.18816 10.8528 2.36353C11.4977 2.53891 12.0729 2.90887 12.5 3.423C13.0438 2.7615 13.8267 2.34134 14.6785 2.25383C15.5303 2.16633 16.3823 2.41855 17.0492 2.95569C17.7161 3.49283 18.1441 4.27147 18.2401 5.1224C18.3361 5.97332 18.0924 6.82775 17.562 7.5H18.5C18.8283 7.5 19.1534 7.56467 19.4567 7.6903C19.76 7.81594 20.0356 8.00009 20.2678 8.23223C20.4999 8.46438 20.6841 8.73998 20.8097 9.04329C20.9353 9.34661 21 9.6717 21 10V11.25C21 11.4489 20.921 11.6397 20.7803 11.7803C20.6397 11.921 20.4489 12 20.25 12H13.55C13.5106 12 13.4716 11.9922 13.4352 11.9772C13.3988 11.9621 13.3657 11.94 13.3379 11.9121C13.31 11.8843 13.2879 11.8512 13.2728 11.8148C13.2578 11.7784 13.25 11.7394 13.25 11.7V8.24C12.9677 8.05843 12.7148 7.83485 12.5 7.577C12.2851 7.8345 12.0322 8.05773 11.75 8.239V11.7C11.75 11.7796 11.7184 11.8559 11.6621 11.9121C11.6059 11.9684 11.5296 12 11.45 12H4.75C4.55109 12 4.36032 11.921 4.21967 11.7803C4.07902 11.6397 4 11.4489 4 11.25V10C4 9.6717 4.06466 9.34661 4.1903 9.04329C4.31594 8.73998 4.50009 8.46438 4.73223 8.23223C4.96438 8.00009 5.23998 7.81594 5.54329 7.6903C5.84661 7.56467 6.1717 7.5 6.5 7.5H7.438C6.9914 6.92906 6.74916 6.22486 6.75 5.5ZM11.75 5.5C11.75 5.03587 11.5656 4.59075 11.2374 4.26256C10.9092 3.93438 10.4641 3.75 10 3.75C9.53587 3.75 9.09075 3.93438 8.76256 4.26256C8.43437 4.59075 8.25 5.03587 8.25 5.5C8.25 5.96413 8.43437 6.40925 8.76256 6.73744C9.09075 7.06563 9.53587 7.25 10 7.25C10.4641 7.25 10.9092 7.06563 11.2374 6.73744C11.5656 6.40925 11.75 5.96413 11.75 5.5ZM13.25 5.5C13.25 5.72982 13.2953 5.95738 13.3832 6.1697C13.4712 6.38202 13.6001 6.57494 13.7626 6.73744C13.9251 6.89994 14.118 7.02885 14.3303 7.11679C14.5426 7.20474 14.7702 7.25 15 7.25C15.2298 7.25 15.4574 7.20474 15.6697 7.11679C15.882 7.02885 16.0749 6.89994 16.2374 6.73744C16.3999 6.57494 16.5288 6.38202 16.6168 6.1697C16.7047 5.95738 16.75 5.72982 16.75 5.5C16.75 5.03587 16.5656 4.59075 16.2374 4.26256C15.9092 3.93438 15.4641 3.75 15 3.75C14.5359 3.75 14.0908 3.93438 13.7626 4.26256C13.4344 4.59075 13.25 5.03587 13.25 5.5Z" fill="white"/>
<path d="M11.75 13.65C11.75 13.5704 11.7184 13.4941 11.6622 13.4379C11.6059 13.3816 11.5296 13.35 11.45 13.35H6.14904C5.95257 13.3496 5.76234 13.419 5.61219 13.5457C5.46204 13.6724 5.36171 13.8483 5.32904 14.042C5.10712 15.3379 5.10712 16.6621 5.32904 17.958L5.55304 19.267C5.62692 19.6958 5.83794 20.089 6.1544 20.3876C6.47087 20.6863 6.87569 20.8741 7.30804 20.923L8.37304 21.042C9.39504 21.156 10.4187 21.2277 11.444 21.257C11.4839 21.2578 11.5234 21.2507 11.5605 21.236C11.5975 21.2213 11.6312 21.1995 11.6597 21.1716C11.6882 21.1438 11.7108 21.1106 11.7264 21.0739C11.7419 21.0372 11.7499 20.9978 11.75 20.958V13.65ZM13.556 21.257C13.5162 21.2578 13.4767 21.2507 13.4396 21.236C13.4026 21.2213 13.3689 21.1995 13.3404 21.1716C13.3119 21.1438 13.2892 21.1106 13.2737 21.0739C13.2582 21.0372 13.2502 20.9978 13.25 20.958V13.65C13.25 13.5704 13.2816 13.4941 13.3379 13.4379C13.3942 13.3816 13.4705 13.35 13.55 13.35H18.851C19.257 13.35 19.603 13.642 19.671 14.042C19.894 15.338 19.894 16.662 19.671 17.958L19.448 19.267C19.3741 19.6959 19.1629 20.0893 18.8463 20.3879C18.5296 20.6866 18.1246 20.8743 17.692 20.923L16.627 21.042C15.6068 21.1562 14.5822 21.228 13.556 21.257Z" fill="white"/>
</svg>
