<svg width="21" height="21" viewBox="0 0 21 21" fill="none" xmlns="http://www.w3.org/2000/svg">
<path fill-rule="evenodd" clip-rule="evenodd" d="M9.375 3.89481V6.25H8.33333C5.03021 6.25 2.24063 8.44583 1.34375 11.4583H0V15.625H1.34375C2.24063 18.6375 5.03021 20.8333 8.33333 20.8333C9.69583 20.8333 11.1375 20.8333 12.5 20.8333C15.8031 20.8333 18.5927 18.6375 19.4896 15.625H20.8333V11.4583H19.4896C18.5927 8.44583 15.8031 6.25 12.5 6.25H11.4583V3.90104C12.0865 3.54062 12.5094 2.86355 12.5094 2.08855C12.5094 0.935422 11.574 0 10.4219 0C9.26875 0 8.33333 0.935422 8.33333 2.08855C8.33333 2.85938 8.75208 3.53335 9.375 3.89481ZM3.125 13.5417C3.125 10.6656 5.45729 8.33333 8.33333 8.33333C9.69583 8.33333 11.1375 8.33333 12.5 8.33333C15.376 8.33333 17.7083 10.6656 17.7083 13.5417C17.7083 13.5458 17.7083 13.551 17.7083 13.5552C17.7083 16.4177 15.376 18.75 12.5 18.75C11.1375 18.75 9.69583 18.75 8.33333 18.75C5.45729 18.75 3.125 16.4177 3.125 13.5417ZM12.5 12.5V14.5833H14.5833V12.5H12.5ZM6.25 12.5V14.5833H8.33333V12.5H6.25Z" fill="black"/>
</svg>
